%TF.GenerationSoftware,KiCad,Pcbnew,8.0.1*%
%TF.CreationDate,2024-04-23T14:14:13-04:00*%
%TF.ProjectId,mainboard,6d61696e-626f-4617-9264-2e6b69636164,rev?*%
%TF.SameCoordinates,Original*%
%TF.FileFunction,Legend,Top*%
%TF.FilePolarity,Positive*%
%FSLAX46Y46*%
G04 Gerber Fmt 4.6, Leading zero omitted, Abs format (unit mm)*
G04 Created by KiCad (PCBNEW 8.0.1) date 2024-04-23 14:14:13*
%MOMM*%
%LPD*%
G01*
G04 APERTURE LIST*
%ADD10C,0.150000*%
%ADD11C,0.120000*%
G04 APERTURE END LIST*
D10*
X169833333Y-77804819D02*
X169500000Y-77328628D01*
X169261905Y-77804819D02*
X169261905Y-76804819D01*
X169261905Y-76804819D02*
X169642857Y-76804819D01*
X169642857Y-76804819D02*
X169738095Y-76852438D01*
X169738095Y-76852438D02*
X169785714Y-76900057D01*
X169785714Y-76900057D02*
X169833333Y-76995295D01*
X169833333Y-76995295D02*
X169833333Y-77138152D01*
X169833333Y-77138152D02*
X169785714Y-77233390D01*
X169785714Y-77233390D02*
X169738095Y-77281009D01*
X169738095Y-77281009D02*
X169642857Y-77328628D01*
X169642857Y-77328628D02*
X169261905Y-77328628D01*
X170785714Y-77804819D02*
X170214286Y-77804819D01*
X170500000Y-77804819D02*
X170500000Y-76804819D01*
X170500000Y-76804819D02*
X170404762Y-76947676D01*
X170404762Y-76947676D02*
X170309524Y-77042914D01*
X170309524Y-77042914D02*
X170214286Y-77090533D01*
X183407873Y-83064512D02*
X182902797Y-83569588D01*
X182902797Y-83569588D02*
X182768110Y-83636932D01*
X182768110Y-83636932D02*
X182633423Y-83636932D01*
X182633423Y-83636932D02*
X182498736Y-83569588D01*
X182498736Y-83569588D02*
X182431392Y-83502245D01*
X183643575Y-83434901D02*
X183710919Y-83434901D01*
X183710919Y-83434901D02*
X183811934Y-83468573D01*
X183811934Y-83468573D02*
X183980293Y-83636932D01*
X183980293Y-83636932D02*
X184013965Y-83737947D01*
X184013965Y-83737947D02*
X184013965Y-83805290D01*
X184013965Y-83805290D02*
X183980293Y-83906306D01*
X183980293Y-83906306D02*
X183912949Y-83973649D01*
X183912949Y-83973649D02*
X183778262Y-84040993D01*
X183778262Y-84040993D02*
X182970140Y-84040993D01*
X182970140Y-84040993D02*
X183407873Y-84478725D01*
X168872657Y-96040543D02*
X169377734Y-96545620D01*
X169377734Y-96545620D02*
X169445077Y-96680307D01*
X169445077Y-96680307D02*
X169445077Y-96814994D01*
X169445077Y-96814994D02*
X169377734Y-96949681D01*
X169377734Y-96949681D02*
X169310390Y-97017024D01*
X170286871Y-96040543D02*
X169882810Y-96444604D01*
X170084840Y-96242574D02*
X169377734Y-95535467D01*
X169377734Y-95535467D02*
X169411405Y-95703826D01*
X169411405Y-95703826D02*
X169411405Y-95838513D01*
X169411405Y-95838513D02*
X169377734Y-95939528D01*
X169238095Y-79754819D02*
X169238095Y-80564342D01*
X169238095Y-80564342D02*
X169285714Y-80659580D01*
X169285714Y-80659580D02*
X169333333Y-80707200D01*
X169333333Y-80707200D02*
X169428571Y-80754819D01*
X169428571Y-80754819D02*
X169619047Y-80754819D01*
X169619047Y-80754819D02*
X169714285Y-80707200D01*
X169714285Y-80707200D02*
X169761904Y-80659580D01*
X169761904Y-80659580D02*
X169809523Y-80564342D01*
X169809523Y-80564342D02*
X169809523Y-79754819D01*
X170809523Y-80754819D02*
X170238095Y-80754819D01*
X170523809Y-80754819D02*
X170523809Y-79754819D01*
X170523809Y-79754819D02*
X170428571Y-79897676D01*
X170428571Y-79897676D02*
X170333333Y-79992914D01*
X170333333Y-79992914D02*
X170238095Y-80040533D01*
X169261905Y-80804819D02*
X169261905Y-79804819D01*
X169261905Y-79804819D02*
X169500000Y-79804819D01*
X169500000Y-79804819D02*
X169642857Y-79852438D01*
X169642857Y-79852438D02*
X169738095Y-79947676D01*
X169738095Y-79947676D02*
X169785714Y-80042914D01*
X169785714Y-80042914D02*
X169833333Y-80233390D01*
X169833333Y-80233390D02*
X169833333Y-80376247D01*
X169833333Y-80376247D02*
X169785714Y-80566723D01*
X169785714Y-80566723D02*
X169738095Y-80661961D01*
X169738095Y-80661961D02*
X169642857Y-80757200D01*
X169642857Y-80757200D02*
X169500000Y-80804819D01*
X169500000Y-80804819D02*
X169261905Y-80804819D01*
X170785714Y-80804819D02*
X170214286Y-80804819D01*
X170500000Y-80804819D02*
X170500000Y-79804819D01*
X170500000Y-79804819D02*
X170404762Y-79947676D01*
X170404762Y-79947676D02*
X170309524Y-80042914D01*
X170309524Y-80042914D02*
X170214286Y-80090533D01*
X154440346Y-86847946D02*
X153935270Y-87353022D01*
X153935270Y-87353022D02*
X153800583Y-87420366D01*
X153800583Y-87420366D02*
X153665896Y-87420366D01*
X153665896Y-87420366D02*
X153531209Y-87353022D01*
X153531209Y-87353022D02*
X153463865Y-87285679D01*
X154709720Y-87117320D02*
X155147453Y-87555053D01*
X155147453Y-87555053D02*
X154642377Y-87588724D01*
X154642377Y-87588724D02*
X154743392Y-87689740D01*
X154743392Y-87689740D02*
X154777064Y-87790755D01*
X154777064Y-87790755D02*
X154777064Y-87858098D01*
X154777064Y-87858098D02*
X154743392Y-87959114D01*
X154743392Y-87959114D02*
X154575033Y-88127472D01*
X154575033Y-88127472D02*
X154474018Y-88161144D01*
X154474018Y-88161144D02*
X154406674Y-88161144D01*
X154406674Y-88161144D02*
X154305659Y-88127472D01*
X154305659Y-88127472D02*
X154103629Y-87925442D01*
X154103629Y-87925442D02*
X154069957Y-87824427D01*
X154069957Y-87824427D02*
X154069957Y-87757083D01*
X168909646Y-71140748D02*
X169414723Y-71645825D01*
X169414723Y-71645825D02*
X169482066Y-71780512D01*
X169482066Y-71780512D02*
X169482066Y-71915199D01*
X169482066Y-71915199D02*
X169414723Y-72049886D01*
X169414723Y-72049886D02*
X169347379Y-72117229D01*
X169785112Y-70736687D02*
X170256516Y-71208092D01*
X169347379Y-70635672D02*
X169684097Y-71309107D01*
X169684097Y-71309107D02*
X170121829Y-70871374D01*
D11*
%TO.C,R1*%
X169000000Y-74430000D02*
X171000000Y-74430000D01*
X171000000Y-76570000D02*
X169000000Y-76570000D01*
%TO.C,J2*%
X181863783Y-84087475D02*
X182761809Y-84985500D01*
X185455885Y-87679577D02*
X187251937Y-89475628D01*
X184737465Y-88397998D02*
X182941414Y-86601946D01*
X184378255Y-88757208D02*
X182582203Y-86961157D01*
X182941414Y-90194049D02*
X181145363Y-88397998D01*
X182582203Y-90553259D02*
X180786152Y-88757208D01*
X181145363Y-91990100D02*
X179349311Y-90194049D01*
X180786152Y-92349310D02*
X178990101Y-90553259D01*
X179349311Y-93786151D02*
X177553260Y-91990100D01*
X178990101Y-94145362D02*
X177194050Y-92349310D01*
X177553260Y-95582203D02*
X175757209Y-93786151D01*
X177194050Y-95941413D02*
X175397999Y-94145362D01*
X175757209Y-97378254D02*
X173961158Y-95582203D01*
X175397999Y-97737464D02*
X173601947Y-95941413D01*
X174679578Y-98455885D02*
X185455885Y-87679577D01*
X187251937Y-89475628D02*
X176475629Y-100251936D01*
X176475629Y-100251936D02*
X174679578Y-98455885D01*
%TO.C,J1*%
X152927641Y-89407897D02*
X154723692Y-87611846D01*
X163703949Y-100184205D02*
X152927641Y-89407897D01*
X154723692Y-87611846D02*
X165500000Y-98388153D01*
X155442113Y-88330267D02*
X157238164Y-86534215D01*
X155801323Y-88689477D02*
X157597374Y-86893426D01*
X157238164Y-90126318D02*
X159034215Y-88330267D01*
X157597374Y-90485528D02*
X159393426Y-88689477D01*
X159034215Y-91922369D02*
X160830267Y-90126318D01*
X159393426Y-92281579D02*
X161189477Y-90485528D01*
X160830267Y-93718420D02*
X162626318Y-91922369D01*
X161189477Y-94077631D02*
X162985528Y-92281579D01*
X162626318Y-95514471D02*
X164422369Y-93718420D01*
X162985528Y-95873682D02*
X164781579Y-94077631D01*
X164422369Y-97310523D02*
X166218420Y-95514471D01*
X164781579Y-97669733D02*
X166577631Y-95873682D01*
X165500000Y-98388153D02*
X163703949Y-100184205D01*
X169092102Y-94796051D02*
X168194077Y-95694077D01*
%TO.C,U1*%
X170000000Y-81065000D02*
X166550000Y-81065000D01*
X170000000Y-81065000D02*
X171950000Y-81065000D01*
X170000000Y-89935000D02*
X168050000Y-89935000D01*
X170000000Y-89935000D02*
X171950000Y-89935000D01*
X167000000Y-80600000D02*
G75*
G02*
X166600000Y-80600000I-200000J0D01*
G01*
X166600000Y-80600000D02*
G75*
G02*
X167000000Y-80600000I200000J0D01*
G01*
%TO.C,D1*%
X171100000Y-77500000D02*
X168900000Y-77500000D01*
X171100000Y-79450000D02*
X168900000Y-79450000D01*
%TO.C,J3*%
X163313352Y-65959084D02*
X165109403Y-67755135D01*
X148944942Y-80327494D02*
X163313352Y-65959084D01*
X165109403Y-67755135D02*
X150740994Y-82123545D01*
X164390983Y-68473555D02*
X166187034Y-70269607D01*
X164031773Y-68832766D02*
X165827824Y-70628817D01*
X162594932Y-70269607D02*
X164390983Y-72065658D01*
X162235721Y-70628817D02*
X164031773Y-72424868D01*
X160798880Y-72065658D02*
X162594932Y-73861709D01*
X160439670Y-72424868D02*
X162235721Y-74220919D01*
X159002829Y-73861709D02*
X160798880Y-75657760D01*
X158643619Y-74220919D02*
X160439670Y-76016971D01*
X157206778Y-75657760D02*
X159002829Y-77453812D01*
X156847568Y-76016971D02*
X158643619Y-77813022D01*
X155410727Y-77453812D02*
X157206778Y-79249863D01*
X155051516Y-77813022D02*
X156847568Y-79609073D01*
X153614676Y-79249863D02*
X155410727Y-81045914D01*
X153255465Y-79609073D02*
X155051516Y-81405124D01*
X151818624Y-81045914D02*
X153614676Y-82841965D01*
X151459414Y-81405124D02*
X153255465Y-83201176D01*
X150740994Y-82123545D02*
X148944942Y-80327494D01*
X154333096Y-85715647D02*
X153435070Y-84817622D01*
%TO.C,J4*%
X171284353Y-71333096D02*
X172182378Y-70435070D01*
X174876455Y-67740994D02*
X176672506Y-65944942D01*
X175594876Y-68459414D02*
X173798824Y-70255465D01*
X175954086Y-68818624D02*
X174158035Y-70614676D01*
X177390927Y-70255465D02*
X175594876Y-72051516D01*
X177750137Y-70614676D02*
X175954086Y-72410727D01*
X179186978Y-72051516D02*
X177390927Y-73847568D01*
X179546188Y-72410727D02*
X177750137Y-74206778D01*
X180983029Y-73847568D02*
X179186978Y-75643619D01*
X181342240Y-74206778D02*
X179546188Y-76002829D01*
X182779081Y-75643619D02*
X180983029Y-77439670D01*
X183138291Y-76002829D02*
X181342240Y-77798880D01*
X184575132Y-77439670D02*
X182779081Y-79235721D01*
X184934342Y-77798880D02*
X183138291Y-79594932D01*
X186371183Y-79235721D02*
X184575132Y-81031773D01*
X186730393Y-79594932D02*
X184934342Y-81390983D01*
X188167234Y-81031773D02*
X186371183Y-82827824D01*
X188526445Y-81390983D02*
X186730393Y-83187034D01*
X189244865Y-82109403D02*
X174876455Y-67740994D01*
X176672506Y-65944942D02*
X191040916Y-80313352D01*
X191040916Y-80313352D02*
X189244865Y-82109403D01*
%TD*%
M02*
